<?xml version="1.0" encoding="utf-8"?>
<!-- Generator: Adobe Illustrator 17.1.0, SVG Export Plug-In . SVG Version: 6.00 Build 0)  -->
<!DOCTYPE svg PUBLIC "-//W3C//DTD SVG 1.1//EN" "http://www.w3.org/Graphics/SVG/1.1/DTD/svg11.dtd">
<svg version="1.1" id="Layer_1" xmlns="http://www.w3.org/2000/svg" xmlns:xlink="http://www.w3.org/1999/xlink" x="0px" y="0px"
	 viewBox="73 152.2 880 80" enable-background="new 73 152.2 880 80" xml:space="preserve">
<g>
	<g>
		<path fill="#009688" d="M77.9,163.9H88v11.9l-0.5,6.2c2.6-2.3,6-4.7,10.6-4.7c7.5,0,10.7,5.3,10.7,13.8v21.3H98.6v-20
			c0-5-1.3-6.5-4.2-6.5c-2.6,0-4.2,1.2-6.4,3.3v23.2H77.9V163.9z"/>
		<path fill="#009688" d="M135.4,190.4c-0.2-3-1.7-5-5.4-5c-2.9,0-5.8,1.2-9.1,3.1l-3.6-6.7c4.4-2.6,9.3-4.5,14.7-4.5
			c8.8,0,13.6,5,13.6,15.5v19.6h-8.3l-0.8-3.5h-0.2c-2.9,2.6-6.2,4.4-10,4.4c-6.2,0-10.2-4.6-10.2-10.4
			C116.1,195.7,121.9,191.8,135.4,190.4z M129.8,205.4c2.4,0,3.9-1.1,5.7-2.9v-6c-7.3,1-9.6,3-9.6,5.7
			C125.8,204.3,127.3,205.4,129.8,205.4z"/>
		<path fill="#009688" d="M154.3,178.1h8.3l0.7,4.4h0.3c2.9-2.8,6.4-5.2,11-5.2c7.5,0,10.7,5.3,10.7,13.8v21.3h-10.2v-20
			c0-5-1.3-6.5-4.2-6.5c-2.6,0-4.2,1.2-6.4,3.3v23.2h-10.2V178.1z"/>
		<path fill="#009688" d="M206.3,177.3c3.8,0,6.1,1.4,8.4,3.6l-0.4-5.3v-11.7h10.2v48.5h-8.3l-0.7-3.4h-0.3
			c-2.4,2.4-5.8,4.2-9.1,4.2c-8.5,0-14-6.8-14-18C192.1,184.1,199.1,177.3,206.3,177.3z M208.8,205c2.2,0,3.9-0.8,5.6-3.1v-14
			c-1.8-1.7-3.8-2.2-5.7-2.2c-3.3,0-6.2,3-6.2,9.5C202.5,201.9,204.8,205,208.8,205z"/>
		<path fill="#009688" d="M233.5,163.9h10.2v11.9l-0.3,5.3c2.6-2.4,5.9-3.8,9.1-3.8c8.3,0,13.5,6.9,13.5,17.4
			c0,11.8-7.1,18.6-14.5,18.6c-3,0-6.2-1.5-8.9-4.4h-0.3l-0.8,3.6h-8V163.9z M249.2,205c3.5,0,6.4-3,6.4-10.1c0-6.2-1.9-9.3-6-9.3
			c-2.1,0-3.9,1-5.9,3.1v14C245.5,204.4,247.4,205,249.2,205z"/>
		<path fill="#009688" d="M287.9,177.3c8.6,0,16.7,6.6,16.7,18c0,11.4-8,18-16.7,18c-8.7,0-16.7-6.6-16.7-18
			C271.2,183.9,279.2,177.3,287.9,177.3z M287.9,205c4.2,0,6.3-3.8,6.3-9.8c0-6-2.1-9.8-6.3-9.8c-4.2,0-6.3,3.8-6.3,9.8
			C281.6,201.2,283.7,205,287.9,205z"/>
		<path fill="#009688" d="M326.3,177.3c8.6,0,16.7,6.6,16.7,18c0,11.4-8,18-16.7,18c-8.7,0-16.7-6.6-16.7-18
			C309.6,183.9,317.6,177.3,326.3,177.3z M326.3,205c4.2,0,6.3-3.8,6.3-9.8c0-6-2.1-9.8-6.3-9.8c-4.2,0-6.3,3.8-6.3,9.8
			C320,201.2,322.1,205,326.3,205z"/>
		<path fill="#009688" d="M350,163.9h9.9v27.8h0.3l10.9-13.6h11.1l-12,14.1l12.9,20.2h-11l-7.7-13.4l-4.4,4.9v8.4H350V163.9z"/>
		<path d="M394,200.5c3.5,0,6.2,2.8,6.2,6.4c0,3.6-2.6,6.4-6.2,6.4s-6.2-2.8-6.2-6.4C387.9,203.2,390.5,200.5,394,200.5z"/>
		<path d="M423.7,177.3c8.6,0,16.7,6.6,16.7,18c0,11.4-8,18-16.7,18c-8.7,0-16.7-6.6-16.7-18C406.9,183.9,414.9,177.3,423.7,177.3z
			 M423.7,205c4.2,0,6.3-3.8,6.3-9.8c0-6-2.1-9.8-6.3-9.8c-4.2,0-6.3,3.8-6.3,9.8C417.4,201.2,419.4,205,423.7,205z"/>
		<path d="M457.5,215.1v10h-10.2v-47h8.3l0.7,3.4h0.3c2.7-2.4,6.2-4.2,9.8-4.2c8.3,0,13.4,6.9,13.4,17.4c0,11.8-7.1,18.5-14.5,18.5
			c-3,0-5.7-1.3-8.2-3.6L457.5,215.1z M463,205c3.5,0,6.4-3,6.4-10.1c0-6.2-1.9-9.3-6-9.3c-2.1,0-3.9,1-5.9,3.1v14
			C459.3,204.4,461.2,205,463,205z"/>
		<path d="M501.1,177.3c9.8,0,14.6,7.1,14.6,16.5c0,1.8-0.2,3.5-0.4,4.3h-20.5c0.9,5.2,4.4,7.5,8.9,7.5c2.6,0,4.9-0.8,7.4-2.3
			l3.4,6.2c-3.5,2.4-8.1,3.9-12.2,3.9c-9.8,0-17.4-6.6-17.4-18C485,184.1,492.9,177.3,501.1,177.3z M507.1,191.8
			c0-3.9-1.7-6.7-5.7-6.7c-3.2,0-6,2.1-6.6,6.7H507.1z"/>
		<path d="M522.8,178.1h8.3l0.7,4.4h0.3c2.9-2.8,6.4-5.2,11-5.2c7.5,0,10.7,5.3,10.7,13.8v21.3h-10.2v-20c0-5-1.3-6.5-4.2-6.5
			c-2.6,0-4.2,1.2-6.4,3.3v23.2h-10.2V178.1z"/>
		<path d="M574.8,177.3c3.8,0,6.1,1.4,8.4,3.6l-0.4-5.3v-11.7H593v48.5h-8.3L584,209h-0.3c-2.4,2.4-5.8,4.2-9.1,4.2
			c-8.5,0-14-6.8-14-18C560.6,184.1,567.6,177.3,574.8,177.3z M577.2,205c2.2,0,3.9-0.8,5.6-3.1v-14c-1.8-1.7-3.8-2.2-5.7-2.2
			c-3.3,0-6.2,3-6.2,9.5C571,201.9,573.3,205,577.2,205z"/>
		<path d="M620.1,190.4c-0.2-3-1.7-5-5.4-5c-2.9,0-5.8,1.2-9.1,3.1l-3.6-6.7c4.4-2.6,9.3-4.5,14.7-4.5c8.8,0,13.6,5,13.6,15.5v19.6
			h-8.3l-0.8-3.5H621c-2.9,2.6-6.2,4.4-10,4.4c-6.2,0-10.2-4.6-10.2-10.4C600.8,195.7,606.5,191.8,620.1,190.4z M614.4,205.4
			c2.4,0,3.9-1.1,5.7-2.9v-6c-7.3,1-9.6,3-9.6,5.7C610.5,204.3,612,205.4,614.4,205.4z"/>
		<path d="M640.3,186.1h-4.7v-7.5l5.3-0.4l1.2-9.1h8.4v9.1h8.2v8h-8.2v13.8c0,3.9,1.7,5.5,4.4,5.5c1.1,0,2.4-0.3,3.3-0.7l1.6,7.4
			c-1.8,0.6-4.3,1.2-7.6,1.2c-8.5,0-11.8-5.3-11.8-13.3V186.1z"/>
		<path d="M682.7,190.4c-0.2-3-1.7-5-5.4-5c-2.9,0-5.8,1.2-9.1,3.1l-3.6-6.7c4.4-2.6,9.3-4.5,14.7-4.5c8.8,0,13.6,5,13.6,15.5v19.6
			h-8.3l-0.8-3.5h-0.2c-2.9,2.6-6.2,4.4-10,4.4c-6.2,0-10.2-4.6-10.2-10.4C663.4,195.7,669.1,191.8,682.7,190.4z M677,205.4
			c2.4,0,3.9-1.1,5.7-2.9v-6c-7.3,1-9.6,3-9.6,5.7C673.1,204.3,674.6,205.4,677,205.4z"/>
		<path d="M707.5,200.5c3.5,0,6.2,2.8,6.2,6.4c0,3.6-2.6,6.4-6.2,6.4s-6.2-2.8-6.2-6.4C701.3,203.2,703.9,200.5,707.5,200.5z"/>
		<path d="M723.9,202.1c3.1,2.4,6,3.6,8.9,3.6c3,0,4.4-1.1,4.4-2.9c0-2.3-3.5-3.3-7-4.7c-4.2-1.6-9.1-4.4-9.1-10.1
			c0-6.4,5.2-10.7,13.1-10.7c5.3,0,9.1,2.1,12.1,4.4l-4.6,6.1c-2.5-1.8-4.8-2.9-7.3-2.9c-2.6,0-3.9,1-3.9,2.7c0,2.2,3.2,3,6.7,4.4
			c4.4,1.6,9.3,4,9.3,10.3c0,6.2-4.9,11.1-14.1,11.1c-4.5,0-9.7-1.9-13.1-4.8L723.9,202.1z"/>
		<path d="M750.1,178.1h10.1l3.3,15.9c0.6,3.4,1,6.7,1.5,10.2h0.3c0.6-3.5,1.2-6.9,2-10.2l3.8-15.9h8.8l3.9,15.9
			c0.8,3.4,1.5,6.7,2.1,10.2h0.3c0.6-3.5,1-6.8,1.6-10.2l3.3-15.9h9.4l-8.2,34.3h-11.9l-3.1-13.7c-0.7-3.2-1.2-6.4-1.9-10h-0.3
			c-0.6,3.7-1.1,6.8-1.7,10l-3,13.7h-11.6L750.1,178.1z"/>
		<path d="M805.8,167.7c0-3.1,2.5-5.3,5.9-5.3c3.5,0,5.9,2.1,5.9,5.3s-2.4,5.3-5.9,5.3C808.3,173.1,805.8,170.9,805.8,167.7z
			 M806.7,178.1h10.2v34.3h-10.2V178.1z"/>
		<path d="M827.3,202.1c3.1,2.4,6,3.6,8.9,3.6c3,0,4.4-1.1,4.4-2.9c0-2.3-3.5-3.3-7-4.7c-4.2-1.6-9.1-4.4-9.1-10.1
			c0-6.4,5.2-10.7,13.1-10.7c5.3,0,9.1,2.1,12.1,4.4l-4.6,6.1c-2.5-1.8-4.8-2.9-7.3-2.9c-2.6,0-3.9,1-3.9,2.7c0,2.2,3.2,3,6.7,4.4
			c4.4,1.6,9.3,4,9.3,10.3c0,6.2-4.9,11.1-14.1,11.1c-4.5,0-9.7-1.9-13.1-4.8L827.3,202.1z"/>
		<path d="M857.9,202.1c3.1,2.4,6,3.6,8.9,3.6c3,0,4.4-1.1,4.4-2.9c0-2.3-3.5-3.3-7-4.7c-4.2-1.6-9.1-4.4-9.1-10.1
			c0-6.4,5.2-10.7,13.1-10.7c5.3,0,9.1,2.1,12.1,4.4l-4.6,6.1c-2.5-1.8-4.8-2.9-7.3-2.9c-2.6,0-3.9,1-3.9,2.7c0,2.2,3.2,3,6.7,4.4
			c4.4,1.6,9.3,4,9.3,10.3c0,6.2-4.9,11.1-14.1,11.1c-4.5,0-9.7-1.9-13.1-4.8L857.9,202.1z"/>
	</g>
	<g>
		<path fill="#009688" d="M909.7,177c7.1-5.1,17-4.4,23.4,1.9c6.4,6.4,7,16.3,1.9,23.4l6.8,6.8c4-4.9,6.1-10.9,6.1-17.3
			c0-7.4-2.9-14.3-8.1-19.5c-5.2-5.2-12.1-8.1-19.5-8.1c-6.4,0-12.4,2.1-17.3,6.1L909.7,177z"/>
		<path d="M930.5,206.7c-7.1,4.8-16.8,4.1-23-2.1c-6.3-6.3-6.9-16-2.1-23l-6.8-6.8c-3.8,4.9-5.9,10.7-5.9,17
			c0,7.4,2.9,14.3,8.1,19.5c5.2,5.2,12.1,8.1,19.5,8.1c6.3,0,12.1-2.1,17-5.9L930.5,206.7z"/>
	</g>
</g>
</svg>
